<svg xmlns="http://www.w3.org/2000/svg" style="display: none;"><symbol id="cocktail" viewBox="0 0 480 480"><title>cocktail</title><path d="M364.001,48c-32.223,0.054-59.392,24.033-63.448,56h-20.096l25.552-88h25.992V0h-32c-3.558,0.001-6.687,2.352-7.68,5.768 L263.801,104h-203.8c-4.418-0.001-8.001,3.58-8.002,7.998c0,1.804,0.609,3.555,1.73,4.97l150.272,189.816V464h-64v16h144v-16h-64 V306.784l110.976-140.176c9.918,6.147,21.356,9.4,33.024,9.392c35.346,0,64-28.654,64-64C428.001,76.654,399.347,48,364.001,48z M76.537,120h182.616l-16.256,56H120.873L76.537,120z M212.001,291.112L133.537,192h104.72l-17.936,61.768l15.36,4.464 L254.913,192h35.552L212.001,291.112z M303.129,176h-43.576l16.264-56h71.648L303.129,176z M364.001,160 c-8.083,0.042-16.04-1.999-23.104-5.928l29.376-37.104c2.744-3.463,2.161-8.495-1.302-11.239c-1.414-1.12-3.165-1.73-4.97-1.729 h-47.336c4.418-26.139,29.19-43.747,55.329-39.329c26.139,4.418,43.747,29.19,39.329,55.329 C407.419,143.092,387.421,159.996,364.001,160z"/></symbol><symbol id="shopping-bag" viewBox="0 0 201.387 201.387"><title>shopping-bag</title><g> <g> <path d="M129.413,24.885C127.389,10.699,115.041,0,100.692,0C91.464,0,82.7,4.453,77.251,11.916 c-1.113,1.522-0.78,3.657,0.742,4.77c1.517,1.109,3.657,0.78,4.768-0.744c4.171-5.707,10.873-9.115,17.93-9.115 c10.974,0,20.415,8.178,21.963,19.021c0.244,1.703,1.705,2.932,3.376,2.932c0.159,0,0.323-0.012,0.486-0.034 C128.382,28.479,129.679,26.75,129.413,24.885z"/> </g> </g><g> <g> <path d="M178.712,63.096l-10.24-17.067c-0.616-1.029-1.727-1.657-2.927-1.657h-9.813c-1.884,0-3.413,1.529-3.413,3.413 s1.529,3.413,3.413,3.413h7.881l6.144,10.24H31.626l6.144-10.24h3.615c1.884,0,3.413-1.529,3.413-3.413s-1.529-3.413-3.413-3.413 h-5.547c-1.2,0-2.311,0.628-2.927,1.657l-10.24,17.067c-0.633,1.056-0.648,2.369-0.043,3.439s1.739,1.732,2.97,1.732h150.187 c1.231,0,2.364-0.662,2.97-1.732S179.345,64.15,178.712,63.096z"/> </g> </g><g> <g> <path d="M161.698,31.623c-0.478-0.771-1.241-1.318-2.123-1.524l-46.531-10.883c-0.881-0.207-1.809-0.053-2.579,0.423 c-0.768,0.478-1.316,1.241-1.522,2.123l-3.509,15c-0.43,1.835,0.71,3.671,2.546,4.099c1.835,0.43,3.673-0.71,4.101-2.546 l2.732-11.675l39.883,9.329l-6.267,26.795c-0.43,1.835,0.71,3.671,2.546,4.099c0.263,0.061,0.524,0.09,0.782,0.09 c1.55,0,2.953-1.062,3.318-2.635l7.045-30.118C162.328,33.319,162.176,32.391,161.698,31.623z"/> </g> </g><g> <g> <path d="M102.497,39.692l-3.11-26.305c-0.106-0.899-0.565-1.72-1.277-2.28c-0.712-0.56-1.611-0.816-2.514-0.71l-57.09,6.748 c-1.871,0.222-3.209,1.918-2.988,3.791l5.185,43.873c0.206,1.737,1.679,3.014,3.386,3.014c0.133,0,0.27-0.009,0.406-0.024 c1.87-0.222,3.208-1.918,2.988-3.791l-4.785-40.486l50.311-5.946l2.708,22.915c0.222,1.872,1.91,3.202,3.791,2.99 C101.379,43.261,102.717,41.564,102.497,39.692z"/> </g> </g><g> <g> <path d="M129.492,63.556l-6.775-28.174c-0.212-0.879-0.765-1.64-1.536-2.113c-0.771-0.469-1.696-0.616-2.581-0.406L63.613,46.087 c-1.833,0.44-2.961,2.284-2.521,4.117l3.386,14.082c0.44,1.835,2.284,2.964,4.116,2.521c1.833-0.44,2.961-2.284,2.521-4.117 l-2.589-10.764l48.35-11.626l5.977,24.854c0.375,1.565,1.775,2.615,3.316,2.615c0.265,0,0.533-0.031,0.802-0.096 C128.804,67.232,129.932,65.389,129.492,63.556z"/> </g> </g><g> <g> <path d="M179.197,64.679c-0.094-1.814-1.592-3.238-3.41-3.238H25.6c-1.818,0-3.316,1.423-3.41,3.238l-6.827,133.12 c-0.048,0.934,0.29,1.848,0.934,2.526c0.645,0.677,1.539,1.062,2.475,1.062h163.84c0.935,0,1.83-0.384,2.478-1.062 c0.643-0.678,0.981-1.591,0.934-2.526L179.197,64.679z M22.364,194.56l6.477-126.293h143.701l6.477,126.293H22.364z"/> </g> </g><g> <g> <path d="M126.292,75.093c-5.647,0-10.24,4.593-10.24,10.24c0,5.647,4.593,10.24,10.24,10.24c5.647,0,10.24-4.593,10.24-10.24 C136.532,79.686,131.939,75.093,126.292,75.093z M126.292,88.747c-1.883,0-3.413-1.531-3.413-3.413s1.531-3.413,3.413-3.413 c1.882,0,3.413,1.531,3.413,3.413S128.174,88.747,126.292,88.747z"/> </g> </g><g> <g> <path d="M75.092,75.093c-5.647,0-10.24,4.593-10.24,10.24c0,5.647,4.593,10.24,10.24,10.24c5.647,0,10.24-4.593,10.24-10.24 C85.332,79.686,80.739,75.093,75.092,75.093z M75.092,88.747c-1.882,0-3.413-1.531-3.413-3.413s1.531-3.413,3.413-3.413 s3.413,1.531,3.413,3.413S76.974,88.747,75.092,88.747z"/> </g> </g><g> <g> <path d="M126.292,85.333h-0.263c-1.884,0-3.413,1.529-3.413,3.413c0,0.466,0.092,0.911,0.263,1.316v17.457 c0,12.233-9.953,22.187-22.187,22.187s-22.187-9.953-22.187-22.187V88.747c0-1.884-1.529-3.413-3.413-3.413 s-3.413,1.529-3.413,3.413v18.773c0,15.998,13.015,29.013,29.013,29.013s29.013-13.015,29.013-29.013V88.747 C129.705,86.863,128.176,85.333,126.292,85.333z"/> </g> </g></symbol><symbol id="eiffel-tower" viewBox="-162 0 884 884.99775"><title>eiffel-tower</title><path d="M 148 884.996094 L 192.25 884.996094 L 192.25 855.496094 L 168.460938 855.496094 L 178.25 826.113281 C 197.101562 769.5 258.273438 738.886719 314.894531 757.738281 C 347.1875 768.484375 372.527344 793.820312 383.277344 826.113281 L 393.042969 855.496094 L 369.253906 855.496094 L 369.253906 884.996094 L 561.003906 884.996094 L 561.003906 855.496094 L 540.347656 855.496094 L 438.085938 663.75 L 457.753906 663.75 L 457.753906 634.25 L 423.828125 634.25 L 375.550781 501.5 L 398.753906 501.5 L 398.753906 472 L 367.453125 472 L 327.050781 162.25 L 354.496094 162.25 L 354.496094 132.75 L 325.007812 132.75 L 325.007812 88.5 C 325.007812 80.351562 318.398438 73.746094 310.25 73.746094 L 295.496094 73.746094 L 295.496094 0 L 266.007812 0 L 266.007812 73.746094 L 251.25 73.746094 C 243.101562 73.746094 236.496094 80.351562 236.496094 88.5 L 236.496094 132.75 L 207 132.75 L 207 162.25 L 234.453125 162.25 L 194.050781 472 L 162.75 472 L 162.75 501.5 L 185.9375 501.5 L 137.671875 634.25 L 103.753906 634.25 L 103.753906 663.75 L 123.414062 663.75 L 21.148438 855.496094 L 0.5 855.496094 L 0.5 884.996094 Z M 266.007812 103.246094 L 295.496094 103.246094 L 295.496094 132.75 L 266.007812 132.75 Z M 264.203125 162.25 L 297.300781 162.25 L 337.699219 472 L 223.796875 472 Z M 217.324219 501.5 L 344.175781 501.5 L 392.433594 634.25 L 350.871094 634.25 L 324.425781 541.691406 C 322.617188 535.363281 316.828125 531.007812 310.25 531 L 251.25 531 C 244.671875 531.007812 238.890625 535.363281 237.078125 541.691406 L 210.628906 634.25 L 169.058594 634.25 Z M 320.1875 634.25 L 241.3125 634.25 L 262.367188 560.5 L 299.128906 560.5 Z M 156.851562 663.75 L 404.652344 663.75 L 506.914062 855.496094 L 424.132812 855.496094 L 411.230469 816.785156 C 387.195312 744.722656 309.296875 705.789062 237.230469 729.816406 C 196.179688 743.511719 163.964844 775.726562 150.273438 816.785156 L 137.367188 855.496094 L 54.589844 855.496094 Z M 156.851562 663.75 " style=" stroke:none;fill-rule:nonzero;fill:rgb(0%,0%,0%);fill-opacity:1;"/></symbol><symbol id="loading" viewBox="0 0 34.652 34.652"><title>loading</title><g> <path style="fill:#010002;" d="M15.529,32.855C6.966,32.855,0,25.889,0,17.326C0,8.763,6.966,1.797,15.529,1.797 c8.563,0,15.529,6.967,15.529,15.529c0,0.49-0.397,0.888-0.888,0.888c-0.49,0-0.888-0.397-0.888-0.888 c0-7.584-6.17-13.755-13.754-13.755c-7.585,0-13.755,6.171-13.755,13.755c0,7.584,6.17,13.754,13.755,13.754 c4.852,0,9.397-2.601,11.862-6.787c0.249-0.423,0.793-0.562,1.215-0.314c0.422,0.248,0.562,0.792,0.315,1.215 C26.139,29.919,21.007,32.855,15.529,32.855z"/> </g><g> <path style="fill:#010002;" d="M30.17,18.214c-0.153,0-0.309-0.04-0.45-0.123l-5.561-3.284c-0.422-0.249-0.562-0.793-0.313-1.215 c0.25-0.422,0.794-0.562,1.216-0.312l4.852,2.865l3.123-4.473c0.281-0.402,0.834-0.5,1.235-0.22c0.402,0.28,0.5,0.833,0.22,1.235 l-3.594,5.146C30.726,18.08,30.451,18.214,30.17,18.214z"/> </g></symbol></svg>