<svg xmlns="http://www.w3.org/2000/svg" style="display: none;"><symbol id="airplane-travelling-around-earth" viewBox="0 0 46.184 46.184"><title>airplane-travelling-around-earth</title><path d="M7.746,32.708c-1.244-2.01-2.152-5.084-2.152-8.371c0-9.856,8.019-17.875,17.873-17.875c2.029,0,3.975,0.357,5.793,0.982 l-2.17-2.635c-1.177-0.219-2.385-0.348-3.623-0.348c-10.958,0-19.873,8.916-19.873,19.875c0,3.659,1.013,7.08,2.434,9.387 L7.746,32.708z"/><path d="M40.784,19.93c0.359,1.41,0.557,2.885,0.557,4.407c0,9.854-8.019,17.873-17.874,17.873c-4.185,0-8.027-1.453-11.071-3.875 l-1.77,1.127c3.463,2.955,7.941,4.748,12.841,4.748c10.959,0,19.874-8.916,19.874-19.873c0-0.726-0.051-1.437-0.127-2.14 L40.784,19.93z"/><path d="M46.157,18.898c-0.248-1.183-5.137-8.079-5.137-8.079s4.153-4.012,4.428-4.488c0.273-0.476,1.325-1.543-0.016-2.646 c-1.342-1.101-2.303-0.389-2.778,0.036c-0.477,0.427-4.044,3.622-4.044,3.622s-7.241-5.272-8.437-5.365 c-1.195-0.094-1.993,0.975-1.993,0.975l7.366,7.427l-3.61,4.259l-3.225-0.941l-1.783,1.098c0,0,3.539,1.543,4.239,2.432 c0.701,0.889,1.625,3.84,1.625,3.84l1.699-0.895l-0.793-3.885l4.098-3.262l7.025,7.704C44.823,20.73,46.405,20.081,46.157,18.898z "/><path d="M29.617,18.401c-0.666-0.625-1.729-1.018-1.729-1.018C19.088,25.935,8.106,35.353,5.717,35.656 c-0.907,0.065-1.479-0.146-1.705-0.634c-0.255-0.557-0.562-0.917,0.087-1.569l-1.856-4.137c-1.772,1.782-2.859,5.212-1.863,7.377 c0.868,1.888,2.735,2.974,5.062,2.974c0.188,0,0.381-0.008,0.574-0.021c4.728-0.352,20.071-14.934,24.662-19.393 C30.677,20.252,30.283,19.026,29.617,18.401z"/></symbol><symbol id="user" viewBox="0 0 480 480"><title>user</title><path d="m240 0c-132.546875 0-240 107.453125-240 240s107.453125 240 240 240c7.230469 0 14.433594-.324219 21.601562-.96875 6.664063-.597656 13.269532-1.511719 19.824219-2.65625l2.519531-.445312c121.863282-22.742188 206.359376-134.550782 194.960938-257.996094-11.398438-123.445313-114.9375-217.8945315-238.90625-217.933594zm-19.28125 463.152344h-.566406c-6.222656-.550782-12.398438-1.382813-18.519532-2.449219-.351562-.0625-.703124-.101563-1.046874-.167969-5.984376-1.070312-11.90625-2.398437-17.769532-3.949218l-1.417968-.363282c-5.71875-1.550781-11.375-3.351562-16.949219-5.351562-.578125-.207032-1.160157-.390625-1.738281-.605469-5.464844-2.007813-10.832032-4.257813-16.117188-6.691406-.65625-.292969-1.3125-.574219-1.96875-.886719-5.183594-2.398438-10.265625-5.101562-15.25-7.945312-.703125-.398438-1.414062-.796876-2.117188-1.191407-4.90625-2.863281-9.699218-5.933593-14.402343-9.175781-.710938-.496094-1.429688-.976562-2.136719-1.472656-4.621094-3.277344-9.125-6.757813-13.511719-10.398438l-1.207031-1.054687v-67.449219c.058594-48.578125 39.421875-87.941406 88-88h112c48.578125.058594 87.941406 39.421875 88 88v67.457031l-1.0625.886719c-4.472656 3.734375-9.0625 7.265625-13.777344 10.601562-.625.4375-1.257812.855469-1.878906 1.285157-4.757812 3.304687-9.632812 6.414062-14.625 9.335937-.625.363282-1.265625.707032-1.886719 1.066406-5.058593 2.878907-10.203125 5.597657-15.449219 8.046876-.601562.28125-1.207031.542968-1.816406.800781-5.328125 2.457031-10.742187 4.71875-16.246094 6.742187-.546874.203125-1.097656.378906-1.601562.570313-5.601562 2.007812-11.28125 3.824219-17.03125 5.382812l-1.378906.34375c-5.871094 1.550781-11.796875 2.886719-17.789063 3.960938-.34375.0625-.6875.105469-1.03125.160156-6.128906 1.070313-12.3125 1.902344-18.539062 2.457031h-.566407c-6.398437.550782-12.800781.847656-19.28125.847656-6.480468 0-12.933593-.242187-19.320312-.792968zm179.28125-66.527344v-52.625c-.066406-57.410156-46.589844-103.933594-104-104h-112c-57.410156.066406-103.933594 46.589844-104 104v52.617188c-86.164062-87.941407-85.203125-228.9375 2.148438-315.699219 87.351562-86.757813 228.351562-86.757813 315.703124 0 87.351563 86.761719 88.3125 227.757812 2.148438 315.699219zm0 0"/><path d="m240 64c-44.183594 0-80 35.816406-80 80s35.816406 80 80 80 80-35.816406 80-80c-.046875-44.164062-35.835938-79.953125-80-80zm0 144c-35.347656 0-64-28.652344-64-64s28.652344-64 64-64 64 28.652344 64 64c-.039062 35.328125-28.671875 63.960938-64 64zm0 0"/></symbol><symbol id="location-pin" viewBox="-55 1 479 479.99946"><title>location-pin</title><path d="m184.5 0c-101.574219.113281-183.886719 82.425781-184 184 0 99.199219 170.839844 285.535156 178.121094 293.425781 1.511718 1.640625 3.644531 2.574219 5.878906 2.574219s4.363281-.933594 5.878906-2.574219c7.28125-7.890625 178.121094-194.226562 178.121094-293.425781-.113281-101.574219-82.425781-183.886719-184-184zm0 460.054688c-30.398438-34.0625-168-192.925782-168-276.054688 0-92.785156 75.214844-168 168-168s168 75.214844 168 168c0 83.128906-137.601562 241.992188-168 276.054688zm0 0"/><path d="m184.5 112c-39.765625 0-72 32.234375-72 72s32.234375 72 72 72 72-32.234375 72-72c-.042969-39.746094-32.253906-71.957031-72-72zm0 128c-30.929688 0-56-25.070312-56-56s25.070312-56 56-56c30.925781 0 56 25.070312 56 56-.035156 30.914062-25.085938 55.964844-56 56zm0 0"/></symbol></svg>